<svg width="17" height="17" viewBox="0 0 17 17" fill="none" xmlns="http://www.w3.org/2000/svg">
<path d="M5.0397 3.61111C3.94039 2.81421 2.15851 2.19743 2.15851 4.16009C2.15851 4.55223 2.39113 7.45203 2.52804 7.92259C3.00193 9.55958 4.60835 9.75033 6.14631 9.49711C3.45787 9.93909 2.89692 11.6293 4.37373 13.0928C5.05831 13.7694 5.64518 14.1495 6.14631 14.1495C7.47558 14.1495 8.22928 12.3092 8.47253 11.8233C8.69386 11.38 8.80485 11.0477 8.80485 10.8264C8.80485 11.0477 8.91584 11.38 9.13717 11.8233C9.38042 12.3092 10.1341 14.1495 11.4634 14.1495C11.9645 14.1495 12.5514 13.77 13.236 13.0928C14.7128 11.6286 14.1518 9.93842 11.4634 9.49711C13.0013 9.74967 14.6071 9.55958 15.0817 7.92259C15.2186 7.45203 15.4512 4.55156 15.4512 4.16009C15.4512 2.19743 13.67 2.81421 12.57 3.61111C11.046 4.71573 9.40634 6.96618 8.80485 8.16784C8.20336 6.96618 6.5637 4.71573 5.0397 3.61111Z" stroke="#85989E" stroke-width="0.996951" stroke-linecap="round" stroke-linejoin="round"/>
</svg>
