<svg width="17" height="17" viewBox="0 0 17 17" fill="none" xmlns="http://www.w3.org/2000/svg">
<path d="M2.43292 8.5C2.43292 9.28553 2.58764 10.0634 2.88825 10.7891C3.18886 11.5148 3.62947 12.1743 4.18492 12.7297C4.74038 13.2852 5.3998 13.7258 6.12553 14.0264C6.85126 14.327 7.6291 14.4817 8.41463 14.4817C9.20016 14.4817 9.978 14.327 10.7037 14.0264C11.4295 13.7258 12.0889 13.2852 12.6443 12.7297C13.1998 12.1743 13.6404 11.5148 13.941 10.7891C14.2416 10.0634 14.3963 9.28553 14.3963 8.5C14.3963 7.71447 14.2416 6.93664 13.941 6.2109C13.6404 5.48517 13.1998 4.82575 12.6443 4.2703C12.0889 3.71484 11.4295 3.27423 10.7037 2.97363C9.978 2.67302 9.20016 2.5183 8.41463 2.5183C7.6291 2.5183 6.85126 2.67302 6.12553 2.97363C5.3998 3.27423 4.74038 3.71484 4.18492 4.2703C3.62947 4.82575 3.18886 5.48517 2.88825 6.2109C2.58764 6.93664 2.43292 7.71447 2.43292 8.5Z" stroke="#85989E" stroke-width="0.996951" stroke-linecap="round" stroke-linejoin="round"/>
<path d="M6.42072 8.50001C6.42072 9.02882 6.63079 9.53598 7.00472 9.90991C7.37864 10.2838 7.8858 10.4939 8.41462 10.4939C8.94343 10.4939 9.45059 10.2838 9.82452 9.90991C10.1984 9.53598 10.4085 9.02882 10.4085 8.50001C10.4085 7.97119 10.1984 7.46403 9.82452 7.0901C9.45059 6.71617 8.94343 6.5061 8.41462 6.5061C7.8858 6.5061 7.37864 6.71617 7.00472 7.0901C6.63079 7.46403 6.42072 7.97119 6.42072 8.50001Z" stroke="#85989E" stroke-width="0.996951" stroke-linecap="round" stroke-linejoin="round"/>
<path d="M8.41461 6.5061H13.9975" stroke="#85989E" stroke-width="0.996951" stroke-linecap="round" stroke-linejoin="round"/>
<path d="M10.1414 9.49695L7.34991 14.3322" stroke="#85989E" stroke-width="0.996951" stroke-linecap="round" stroke-linejoin="round"/>
<path d="M6.68795 9.49695L3.89648 4.66174" stroke="#85989E" stroke-width="0.996951" stroke-linecap="round" stroke-linejoin="round"/>
</svg>
