<svg width="17" height="17" viewBox="0 0 17 17" fill="none" xmlns="http://www.w3.org/2000/svg">
<path d="M2.87805 5.84147C2.87805 5.13638 3.15815 4.46017 3.65672 3.9616C4.15529 3.46302 4.8315 3.18293 5.53659 3.18293H10.8537C11.5587 3.18293 12.235 3.46302 12.7335 3.9616C13.2321 4.46017 13.5122 5.13638 13.5122 5.84147V11.1585C13.5122 11.8636 13.2321 12.5398 12.7335 13.0384C12.235 13.537 11.5587 13.8171 10.8537 13.8171H5.53659C4.8315 13.8171 4.15529 13.537 3.65672 13.0384C3.15815 12.5398 2.87805 11.8636 2.87805 11.1585V5.84147Z" stroke="#85989E" stroke-width="0.996951" stroke-linecap="round" stroke-linejoin="round"/>
<path d="M6.20123 8.50001C6.20123 9.02882 6.4113 9.53598 6.78523 9.90991C7.15916 10.2838 7.66632 10.4939 8.19514 10.4939C8.72395 10.4939 9.23111 10.2838 9.60504 9.90991C9.97897 9.53598 10.189 9.02882 10.189 8.50001C10.189 7.97119 9.97897 7.46403 9.60504 7.0901C9.23111 6.71617 8.72395 6.5061 8.19514 6.5061C7.66632 6.5061 7.15916 6.71617 6.78523 7.0901C6.4113 7.46403 6.20123 7.97119 6.20123 8.50001Z" stroke="#85989E" stroke-width="0.996951" stroke-linecap="round" stroke-linejoin="round"/>
<path d="M11.186 5.50915V5.51598" stroke="#85989E" stroke-width="0.996951" stroke-linecap="round" stroke-linejoin="round"/>
</svg>
