<svg width="40" height="40" viewBox="0 0 40 40" fill="none" xmlns="http://www.w3.org/2000/svg">
<path d="M20 0C13.0908 0 7.89661 1.12699 4.51239 4.5106C1.12809 7.89428 0 13.0886 0 20C0 26.9096 1.12815 32.1036 4.51226 35.4878C7.89638 38.8719 13.0904 40 20 40C26.9096 40 32.1036 38.8719 35.4878 35.4878C38.8719 32.1036 40 26.9096 40 20C40 13.0904 38.8719 7.89638 35.4878 4.51226C32.1036 1.12815 26.9096 0 20 0Z" fill="#0062FF"/>
<path fill-rule="evenodd" clip-rule="evenodd" d="M9.84401 27.8022C10.6485 27.0762 11.8939 27.1346 12.6258 27.9326C12.8228 28.1473 12.9625 28.3938 13.0458 28.6534H26.9269C27.0204 28.3015 27.214 27.9715 27.5057 27.7084C28.31 26.9825 29.5556 27.0409 30.2874 27.8389C31.0192 28.6366 30.9603 29.872 30.156 30.5978C29.3515 31.3237 28.1061 31.2653 27.3741 30.4675C27.1487 30.2216 26.9981 29.9342 26.9215 29.6329H13.0996C13.0199 30.027 12.8171 30.4003 12.4943 30.6915C11.6898 31.4175 10.4444 31.3591 9.71254 30.5612C8.98069 29.7633 9.03955 28.5281 9.84401 27.8022Z" fill="white"/>
<path fill-rule="evenodd" clip-rule="evenodd" d="M22.7027 13.2793H26V26.0705H22.7027V24.7188C22.0584 25.3147 21.4135 25.7435 20.7661 26.0059C20.1194 26.2683 19.4169 26.4 18.6614 26.4C16.9641 26.4 15.4964 25.759 14.2583 24.4776C13.0197 23.1962 12.4 21.6028 12.4 19.6986C12.4 17.7238 12.9996 16.1052 14.1984 14.8428C15.3969 13.5815 16.8517 12.9504 18.565 12.9504C19.3533 12.9504 20.093 13.0954 20.7846 13.3852C21.4758 13.6753 22.1152 14.1102 22.703 14.69V13.2793H22.7027ZM19.2363 15.9131C18.2178 15.9131 17.3702 16.2643 16.6966 16.9657C16.0228 17.6668 15.6856 18.5665 15.6856 19.6636C15.6856 20.7687 16.0289 21.6782 16.7149 22.391C17.4009 23.1044 18.2452 23.461 19.2485 23.461C20.2842 23.461 21.1425 23.1102 21.8237 22.4088C22.5066 21.7074 22.8478 20.7882 22.8478 19.6518C22.8478 18.5392 22.5066 17.6376 21.8237 16.9476C21.1422 16.2583 20.2801 15.9131 19.2363 15.9131ZM19.1944 7.20001C19.6779 7.20001 20.0878 7.36416 20.4264 7.69355C20.7646 8.02293 20.9331 8.41825 20.9331 8.88081C20.9331 9.35104 20.7646 9.75119 20.4264 10.0801C20.0878 10.4093 19.6779 10.5739 19.1944 10.5739C18.7192 10.5739 18.3124 10.4091 17.9745 10.0801C17.6373 9.75119 17.4673 9.35126 17.4673 8.88081C17.4673 8.41825 17.6373 8.02293 17.9745 7.69355C18.3124 7.36394 18.719 7.20001 19.1944 7.20001Z" fill="white"/>
</svg>
