<svg width="17" height="17" viewBox="0 0 17 17" fill="none" xmlns="http://www.w3.org/2000/svg">
<path d="M14.5671 5.7863V8.46744C13.3614 8.34783 12.2119 7.89927 11.2439 7.17073V10.1616C11.2437 10.9732 11.0149 11.7683 10.5837 12.4559C10.1525 13.1435 9.53632 13.6957 8.80578 14.0493C8.07524 14.4028 7.25987 14.5435 6.4531 14.455C5.64633 14.3666 4.88078 14.0527 4.24416 13.5493C3.60754 13.0459 3.1256 12.3733 2.85356 11.6087C2.58151 10.844 2.53037 10.0182 2.70598 9.22585C2.8816 8.43347 3.27687 7.70659 3.8465 7.12847C4.41614 6.55036 5.13711 6.14441 5.92681 5.95711V8.83232C5.70023 9.00226 5.52084 9.22729 5.4057 9.48606C5.29055 9.74482 5.24345 10.0287 5.26889 10.3108C5.29432 10.5929 5.39144 10.8638 5.55102 11.0978C5.71061 11.3318 5.92735 11.5211 6.18068 11.6478C6.434 11.7744 6.7155 11.8342 6.99845 11.8215C7.28139 11.8088 7.55638 11.7239 7.79731 11.575C8.03824 11.4261 8.2371 11.2181 8.37503 10.9707C8.51295 10.7233 8.58535 10.4448 8.58535 10.1616V2.5183H11.299C11.4374 3.33473 11.8263 4.08791 12.4119 4.67346C12.9974 5.259 13.7506 5.64791 14.5671 5.7863Z" stroke="#85989E" stroke-width="0.996951" stroke-linecap="round" stroke-linejoin="round"/>
</svg>
