<svg width="16" height="17" viewBox="0 0 16 17" fill="none" xmlns="http://www.w3.org/2000/svg">
<g clip-path="url(#clip0_6_564)">
<path d="M1.37805 5.84147C1.37805 5.13638 1.65815 4.46017 2.15672 3.9616C2.65529 3.46302 3.3315 3.18293 4.03659 3.18293H12.0122C12.7173 3.18293 13.3935 3.46302 13.8921 3.9616C14.3906 4.46017 14.6707 5.13638 14.6707 5.84147V11.1585C14.6707 11.8636 14.3906 12.5398 13.8921 13.0384C13.3935 13.537 12.7173 13.8171 12.0122 13.8171H4.03659C3.3315 13.8171 2.65529 13.537 2.15672 13.0384C1.65815 12.5398 1.37805 11.8636 1.37805 11.1585V5.84147Z" stroke="#85989E" stroke-width="0.996951" stroke-linecap="round" stroke-linejoin="round"/>
<path d="M6.69513 6.5061L10.0183 8.50001L6.69513 10.4939V6.5061Z" stroke="#85989E" stroke-width="0.996951" stroke-linecap="round" stroke-linejoin="round"/>
</g>
<defs>
<clipPath id="clip0_6_564">
<rect width="15.9512" height="15.9512" fill="white" transform="translate(0.0487671 0.524391)"/>
</clipPath>
</defs>
</svg>
